<svg width="46" height="46" viewBox="0 0 46 46" fill="none" xmlns="http://www.w3.org/2000/svg">
<rect width="46" height="46" rx="3" fill="#4C6EA7"/>
<path d="M20.6136 25.8409C20.6136 25.4644 20.3084 25.1591 19.9318 25.1591H16.8636V21.5228H19.9318C20.3084 21.5228 20.6136 21.2175 20.6136 20.8409V18.3409C20.6136 16.8642 21.2003 15.4479 22.2445 14.4036C23.2888 13.3594 24.7051 12.7728 26.1818 12.7728H29.25V16.4091H26.1818C25.6695 16.4091 25.1781 16.6127 24.8158 16.9749C24.4535 17.3372 24.25 17.8286 24.25 18.3409V20.8409C24.25 21.2175 24.5553 21.5228 24.9318 21.5228H29.0586L28.1495 25.1591H24.9318C24.5553 25.1591 24.25 25.4644 24.25 25.8409V33.9091H20.6136V25.8409Z" fill="white" stroke="white" stroke-width="1.36364" stroke-linecap="round" stroke-linejoin="round"/>
</svg>
