<svg width="46" height="46" viewBox="0 0 46 46" fill="none" xmlns="http://www.w3.org/2000/svg">
<rect width="46" height="46" rx="3" fill="#4297C4"/>
<path d="M32.7687 14.4836C33.3854 14.315 34.0162 14.1426 34.6518 13.912C34.4082 14.487 34.0885 15.138 33.7729 15.7574C33.6568 15.9853 33.5403 16.2109 33.4306 16.4232C33.3002 16.6757 33.1795 16.9094 33.0807 17.106C32.9885 17.2893 32.9085 17.4538 32.8507 17.5855C32.822 17.6509 32.7954 17.7161 32.775 17.7759C32.761 17.8171 32.7269 17.9184 32.7275 18.0303C32.736 19.5689 32.5331 21.1013 32.1246 22.5847C30.7623 27.4325 27.221 30.6617 22.903 31.9161C19.6796 32.8518 15.9925 32.4377 12.4443 30.8953C14.5697 30.5814 16.4409 29.6394 18.2772 28.4161C18.4295 28.3147 18.5142 28.1382 18.4981 27.9559C18.4819 27.7737 18.3675 27.6148 18.1998 27.5417C15.7177 26.4596 14.2122 25.1024 13.3265 23.7031C12.4401 22.3027 12.1512 20.8228 12.1647 19.4579C12.1782 18.0892 12.4962 16.8445 12.8148 15.9371C12.9133 15.6566 13.0113 15.4097 13.0995 15.203C15.527 18.1791 19.0711 19.8507 23.0128 19.7499C23.2839 19.7429 23.5 19.5212 23.5 19.25V18H23.5L23.5 17.9932C23.4743 16.1198 24.6403 14.4748 26.4503 13.797C28.3434 13.0882 30.1664 13.2169 31.3758 14.5816C31.5044 14.7268 31.7055 14.7845 31.8915 14.7296C32.18 14.6445 32.4727 14.5645 32.7687 14.4836Z" fill="white" stroke="white" stroke-linecap="round" stroke-linejoin="round"/>
</svg>
